<svg width="292" height="49" viewBox="0 0 292 49" fill="none" xmlns="http://www.w3.org/2000/svg">
<path d="M29.594 30.478C29.234 30.754 28.778 30.946 28.226 31.054C27.674 31.162 27.086 31.216 26.462 31.216C25.706 31.216 24.998 31.09 24.338 30.838C23.678 30.574 23.102 30.178 22.61 29.65C22.118 29.122 21.728 28.45 21.44 27.634C21.152 26.806 21.008 25.828 21.008 24.7C21.008 23.524 21.164 22.528 21.476 21.712C21.8 20.884 22.22 20.212 22.736 19.696C23.264 19.168 23.852 18.784 24.5 18.544C25.148 18.304 25.808 18.184 26.48 18.184C27.2 18.184 27.788 18.226 28.244 18.31C28.7 18.382 29.09 18.484 29.414 18.616L29.054 19.93C28.478 19.654 27.656 19.516 26.588 19.516C26.096 19.516 25.61 19.606 25.13 19.786C24.65 19.966 24.218 20.26 23.834 20.668C23.462 21.076 23.162 21.61 22.934 22.27C22.706 22.93 22.592 23.74 22.592 24.7C22.592 25.564 22.7 26.32 22.916 26.968C23.132 27.616 23.426 28.156 23.798 28.588C24.182 29.02 24.626 29.344 25.13 29.56C25.646 29.776 26.204 29.884 26.804 29.884C27.344 29.884 27.812 29.83 28.208 29.722C28.616 29.614 28.958 29.476 29.234 29.308L29.594 30.478ZM37.1772 27.022H33.1092V31H31.6692V22H33.1092V25.762H37.1772V22H38.6172V31H37.1772V27.022ZM41.2459 22.666C41.7019 22.39 42.2299 22.186 42.8299 22.054C43.4419 21.922 44.0779 21.856 44.7379 21.856C45.3619 21.856 45.8599 21.94 46.2319 22.108C46.6159 22.276 46.9039 22.498 47.0959 22.774C47.2999 23.038 47.4319 23.332 47.4919 23.656C47.5639 23.98 47.5999 24.304 47.5999 24.628C47.5999 25.348 47.5819 26.05 47.5459 26.734C47.5099 27.418 47.4919 28.066 47.4919 28.678C47.4919 29.122 47.5099 29.542 47.5459 29.938C47.5819 30.334 47.6479 30.7 47.7439 31.036H46.6819L46.3039 29.776H46.2139C46.1059 29.944 45.9679 30.112 45.7999 30.28C45.6439 30.436 45.4519 30.58 45.2239 30.712C44.9959 30.832 44.7319 30.934 44.4319 31.018C44.1319 31.102 43.7899 31.144 43.4059 31.144C43.0219 31.144 42.6619 31.084 42.3259 30.964C42.0019 30.844 41.7199 30.676 41.4799 30.46C41.2399 30.232 41.0479 29.962 40.9039 29.65C40.7719 29.338 40.7059 28.984 40.7059 28.588C40.7059 28.06 40.8139 27.622 41.0299 27.274C41.2459 26.914 41.5459 26.632 41.9299 26.428C42.3259 26.212 42.7939 26.062 43.3339 25.978C43.8859 25.882 44.4919 25.834 45.1519 25.834C45.3199 25.834 45.4819 25.834 45.6379 25.834C45.8059 25.834 45.9739 25.846 46.1419 25.87C46.1779 25.51 46.1959 25.186 46.1959 24.898C46.1959 24.238 46.0639 23.776 45.7999 23.512C45.5359 23.248 45.0559 23.116 44.3599 23.116C44.1559 23.116 43.9339 23.134 43.6939 23.17C43.4659 23.194 43.2259 23.236 42.9739 23.296C42.7339 23.344 42.4999 23.41 42.2719 23.494C42.0559 23.566 41.8639 23.65 41.6959 23.746L41.2459 22.666ZM43.8019 29.884C44.1379 29.884 44.4379 29.842 44.7019 29.758C44.9659 29.662 45.1939 29.548 45.3859 29.416C45.5779 29.272 45.7339 29.116 45.8539 28.948C45.9859 28.78 46.0819 28.618 46.1419 28.462V26.968C45.9739 26.956 45.7999 26.95 45.6199 26.95C45.4519 26.938 45.2839 26.932 45.1159 26.932C44.7439 26.932 44.3779 26.956 44.0179 27.004C43.6699 27.04 43.3579 27.118 43.0819 27.238C42.8179 27.346 42.6019 27.502 42.4339 27.706C42.2779 27.898 42.1999 28.144 42.1999 28.444C42.1999 28.864 42.3499 29.212 42.6499 29.488C42.9499 29.752 43.3339 29.884 43.8019 29.884ZM51.2556 22V24.448C51.2556 24.772 51.2736 25.066 51.3096 25.33C51.3456 25.582 51.4176 25.804 51.5256 25.996C51.6336 26.176 51.7896 26.32 51.9936 26.428C52.1976 26.524 52.4676 26.572 52.8036 26.572C53.3436 26.572 53.7876 26.512 54.1356 26.392C54.4836 26.272 54.7476 26.14 54.9276 25.996V22H56.3676V31H54.9276V27.22C54.7356 27.34 54.4476 27.472 54.0636 27.616C53.6916 27.76 53.1756 27.832 52.5156 27.832C52.0716 27.832 51.6816 27.784 51.3456 27.688C51.0096 27.592 50.7276 27.424 50.4996 27.184C50.2716 26.944 50.0976 26.626 49.9776 26.23C49.8696 25.834 49.8156 25.336 49.8156 24.736V22H51.2556ZM58.9998 22.666C59.4558 22.39 59.9838 22.186 60.5838 22.054C61.1958 21.922 61.8318 21.856 62.4918 21.856C63.1158 21.856 63.6138 21.94 63.9858 22.108C64.3698 22.276 64.6578 22.498 64.8498 22.774C65.0538 23.038 65.1858 23.332 65.2458 23.656C65.3178 23.98 65.3538 24.304 65.3538 24.628C65.3538 25.348 65.3358 26.05 65.2998 26.734C65.2638 27.418 65.2458 28.066 65.2458 28.678C65.2458 29.122 65.2638 29.542 65.2998 29.938C65.3358 30.334 65.4018 30.7 65.4978 31.036H64.4358L64.0578 29.776H63.9678C63.8598 29.944 63.7218 30.112 63.5538 30.28C63.3978 30.436 63.2058 30.58 62.9778 30.712C62.7498 30.832 62.4858 30.934 62.1858 31.018C61.8858 31.102 61.5438 31.144 61.1598 31.144C60.7758 31.144 60.4158 31.084 60.0798 30.964C59.7558 30.844 59.4738 30.676 59.2338 30.46C58.9938 30.232 58.8018 29.962 58.6578 29.65C58.5258 29.338 58.4598 28.984 58.4598 28.588C58.4598 28.06 58.5678 27.622 58.7838 27.274C58.9998 26.914 59.2998 26.632 59.6838 26.428C60.0798 26.212 60.5478 26.062 61.0878 25.978C61.6398 25.882 62.2458 25.834 62.9058 25.834C63.0738 25.834 63.2358 25.834 63.3918 25.834C63.5598 25.834 63.7278 25.846 63.8958 25.87C63.9318 25.51 63.9498 25.186 63.9498 24.898C63.9498 24.238 63.8178 23.776 63.5538 23.512C63.2898 23.248 62.8098 23.116 62.1138 23.116C61.9098 23.116 61.6878 23.134 61.4478 23.17C61.2198 23.194 60.9798 23.236 60.7278 23.296C60.4878 23.344 60.2538 23.41 60.0258 23.494C59.8098 23.566 59.6178 23.65 59.4498 23.746L58.9998 22.666ZM61.5558 29.884C61.8918 29.884 62.1918 29.842 62.4558 29.758C62.7198 29.662 62.9478 29.548 63.1398 29.416C63.3318 29.272 63.4878 29.116 63.6078 28.948C63.7398 28.78 63.8358 28.618 63.8958 28.462V26.968C63.7278 26.956 63.5538 26.95 63.3738 26.95C63.2058 26.938 63.0378 26.932 62.8698 26.932C62.4978 26.932 62.1318 26.956 61.7718 27.004C61.4238 27.04 61.1118 27.118 60.8358 27.238C60.5718 27.346 60.3558 27.502 60.1878 27.706C60.0318 27.898 59.9538 28.144 59.9538 28.444C59.9538 28.864 60.1038 29.212 60.4038 29.488C60.7038 29.752 61.0878 29.884 61.5558 29.884ZM72.9155 23.26H70.3055C70.2695 23.764 70.2335 24.31 70.1975 24.898C70.1615 25.474 70.1075 26.056 70.0355 26.644C69.9635 27.22 69.8675 27.778 69.7475 28.318C69.6275 28.846 69.4715 29.314 69.2795 29.722C69.0995 30.13 68.8715 30.46 68.5955 30.712C68.3315 30.952 68.0135 31.072 67.6415 31.072C67.4135 31.072 67.2155 31.06 67.0475 31.036C66.8795 31.012 66.7295 30.97 66.5975 30.91L66.8135 29.704C66.9575 29.752 67.1135 29.776 67.2815 29.776C67.5215 29.776 67.7375 29.674 67.9295 29.47C68.1215 29.266 68.2895 28.882 68.4335 28.318C68.5775 27.742 68.6975 26.95 68.7935 25.942C68.8895 24.934 68.9555 23.62 68.9915 22H74.3555V31H72.9155V23.26ZM76.9822 22.666C77.4382 22.39 77.9662 22.186 78.5662 22.054C79.1782 21.922 79.8142 21.856 80.4742 21.856C81.0982 21.856 81.5962 21.94 81.9682 22.108C82.3522 22.276 82.6402 22.498 82.8322 22.774C83.0362 23.038 83.1682 23.332 83.2282 23.656C83.3002 23.98 83.3362 24.304 83.3362 24.628C83.3362 25.348 83.3182 26.05 83.2822 26.734C83.2462 27.418 83.2282 28.066 83.2282 28.678C83.2282 29.122 83.2462 29.542 83.2822 29.938C83.3182 30.334 83.3842 30.7 83.4802 31.036H82.4182L82.0402 29.776H81.9502C81.8422 29.944 81.7042 30.112 81.5362 30.28C81.3802 30.436 81.1882 30.58 80.9602 30.712C80.7322 30.832 80.4682 30.934 80.1682 31.018C79.8682 31.102 79.5262 31.144 79.1422 31.144C78.7582 31.144 78.3982 31.084 78.0622 30.964C77.7382 30.844 77.4562 30.676 77.2162 30.46C76.9762 30.232 76.7842 29.962 76.6402 29.65C76.5082 29.338 76.4422 28.984 76.4422 28.588C76.4422 28.06 76.5502 27.622 76.7662 27.274C76.9822 26.914 77.2822 26.632 77.6662 26.428C78.0622 26.212 78.5302 26.062 79.0702 25.978C79.6222 25.882 80.2282 25.834 80.8882 25.834C81.0562 25.834 81.2182 25.834 81.3742 25.834C81.5422 25.834 81.7102 25.846 81.8782 25.87C81.9142 25.51 81.9322 25.186 81.9322 24.898C81.9322 24.238 81.8002 23.776 81.5362 23.512C81.2722 23.248 80.7922 23.116 80.0962 23.116C79.8922 23.116 79.6702 23.134 79.4302 23.17C79.2022 23.194 78.9622 23.236 78.7102 23.296C78.4702 23.344 78.2362 23.41 78.0082 23.494C77.7922 23.566 77.6002 23.65 77.4322 23.746L76.9822 22.666ZM79.5382 29.884C79.8742 29.884 80.1742 29.842 80.4382 29.758C80.7022 29.662 80.9302 29.548 81.1222 29.416C81.3142 29.272 81.4702 29.116 81.5902 28.948C81.7222 28.78 81.8182 28.618 81.8782 28.462V26.968C81.7102 26.956 81.5362 26.95 81.3562 26.95C81.1882 26.938 81.0202 26.932 80.8522 26.932C80.4802 26.932 80.1142 26.956 79.7542 27.004C79.4062 27.04 79.0942 27.118 78.8182 27.238C78.5542 27.346 78.3382 27.502 78.1702 27.706C78.0142 27.898 77.9362 28.144 77.9362 28.444C77.9362 28.864 78.0862 29.212 78.3862 29.488C78.6862 29.752 79.0702 29.884 79.5382 29.884ZM98.8108 33.286H97.8388L97.5688 31H90.8008L90.5308 33.286H89.5588V29.74H90.6208C90.7168 29.608 90.8428 29.374 90.9988 29.038C91.1548 28.69 91.3048 28.21 91.4488 27.598C91.6048 26.974 91.7368 26.206 91.8447 25.294C91.9648 24.37 92.0368 23.272 92.0608 22H97.4968V29.74H98.8108V33.286ZM96.0568 29.74V23.26H93.3568C93.3328 23.764 93.2908 24.316 93.2308 24.916C93.1708 25.504 93.0868 26.098 92.9788 26.698C92.8828 27.286 92.7568 27.844 92.6008 28.372C92.4448 28.9 92.2648 29.356 92.0608 29.74H96.0568ZM107.163 30.28C106.803 30.568 106.347 30.796 105.795 30.964C105.255 31.132 104.679 31.216 104.067 31.216C103.383 31.216 102.789 31.108 102.285 30.892C101.781 30.664 101.367 30.346 101.043 29.938C100.719 29.518 100.479 29.02 100.323 28.444C100.167 27.868 100.089 27.22 100.089 26.5C100.089 24.964 100.431 23.794 101.115 22.99C101.799 22.186 102.777 21.784 104.049 21.784C104.457 21.784 104.865 21.832 105.273 21.928C105.681 22.012 106.047 22.18 106.371 22.432C106.695 22.684 106.959 23.044 107.163 23.512C107.367 23.968 107.469 24.574 107.469 25.33C107.469 25.726 107.433 26.164 107.361 26.644H101.583C101.583 27.172 101.637 27.64 101.745 28.048C101.853 28.456 102.021 28.804 102.249 29.092C102.477 29.368 102.771 29.584 103.131 29.74C103.503 29.884 103.953 29.956 104.481 29.956C104.889 29.956 105.297 29.884 105.705 29.74C106.113 29.596 106.419 29.428 106.623 29.236L107.163 30.28ZM104.067 23.044C103.359 23.044 102.789 23.23 102.357 23.602C101.937 23.974 101.685 24.61 101.601 25.51H106.065C106.065 24.598 105.891 23.962 105.543 23.602C105.195 23.23 104.703 23.044 104.067 23.044ZM109.734 31V22H111.174V29.74H114.252V22H115.692V29.74H118.77V22H120.21V31H109.734ZM129.558 30.28C129.198 30.568 128.742 30.796 128.19 30.964C127.65 31.132 127.074 31.216 126.462 31.216C125.778 31.216 125.184 31.108 124.68 30.892C124.176 30.664 123.762 30.346 123.438 29.938C123.114 29.518 122.874 29.02 122.718 28.444C122.562 27.868 122.484 27.22 122.484 26.5C122.484 24.964 122.826 23.794 123.51 22.99C124.194 22.186 125.172 21.784 126.444 21.784C126.852 21.784 127.26 21.832 127.668 21.928C128.076 22.012 128.442 22.18 128.766 22.432C129.09 22.684 129.354 23.044 129.558 23.512C129.762 23.968 129.864 24.574 129.864 25.33C129.864 25.726 129.828 26.164 129.756 26.644H123.978C123.978 27.172 124.032 27.64 124.14 28.048C124.248 28.456 124.416 28.804 124.644 29.092C124.872 29.368 125.166 29.584 125.526 29.74C125.898 29.884 126.348 29.956 126.876 29.956C127.284 29.956 127.692 29.884 128.1 29.74C128.508 29.596 128.814 29.428 129.018 29.236L129.558 30.28ZM126.462 23.044C125.754 23.044 125.184 23.23 124.752 23.602C124.332 23.974 124.08 24.61 123.996 25.51H128.46C128.46 24.598 128.286 23.962 127.938 23.602C127.59 23.23 127.098 23.044 126.462 23.044ZM132.128 22.018C132.548 21.994 132.986 21.964 133.442 21.928C133.91 21.892 134.486 21.874 135.17 21.874C136.358 21.874 137.21 22.06 137.726 22.432C138.242 22.792 138.5 23.344 138.5 24.088C138.5 24.508 138.374 24.922 138.122 25.33C137.882 25.726 137.48 26.02 136.916 26.212V26.284C137.624 26.416 138.122 26.662 138.41 27.022C138.698 27.382 138.842 27.862 138.842 28.462C138.842 29.398 138.506 30.076 137.834 30.496C137.162 30.916 136.154 31.126 134.81 31.126C134.306 31.126 133.838 31.108 133.406 31.072C132.974 31.048 132.548 31.018 132.128 30.982V22.018ZM133.568 29.794C133.796 29.818 134.018 29.836 134.234 29.848C134.462 29.86 134.726 29.866 135.026 29.866C135.83 29.866 136.424 29.752 136.808 29.524C137.204 29.296 137.402 28.906 137.402 28.354C137.402 27.922 137.234 27.574 136.898 27.31C136.574 27.034 135.992 26.896 135.152 26.896H133.568V29.794ZM135.332 25.798C135.548 25.798 135.758 25.762 135.962 25.69C136.166 25.618 136.346 25.522 136.502 25.402C136.67 25.27 136.802 25.12 136.898 24.952C137.006 24.784 137.06 24.604 137.06 24.412C137.06 23.932 136.916 23.602 136.628 23.422C136.34 23.23 135.836 23.134 135.116 23.134C134.732 23.134 134.426 23.14 134.198 23.152C133.982 23.164 133.772 23.176 133.568 23.188V25.798H135.332ZM142.551 29.74C142.995 29.812 143.421 29.848 143.829 29.848C144.585 29.848 145.113 29.704 145.413 29.416C145.713 29.116 145.863 28.696 145.863 28.156C145.863 27.676 145.713 27.28 145.413 26.968C145.125 26.656 144.615 26.5 143.883 26.5C143.679 26.5 143.457 26.506 143.217 26.518C142.977 26.53 142.755 26.566 142.551 26.626V29.74ZM142.551 25.438C142.839 25.39 143.115 25.36 143.379 25.348C143.643 25.324 143.895 25.312 144.135 25.312C144.747 25.312 145.257 25.384 145.665 25.528C146.085 25.66 146.421 25.846 146.673 26.086C146.925 26.326 147.099 26.614 147.195 26.95C147.303 27.274 147.357 27.622 147.357 27.994C147.357 29.086 147.051 29.878 146.439 30.37C145.839 30.862 144.861 31.108 143.505 31.108C142.737 31.108 141.939 31.072 141.111 31V22H142.551V25.438ZM148.779 22H150.219V31H148.779V22ZM159.563 30.28C159.203 30.568 158.747 30.796 158.195 30.964C157.655 31.132 157.079 31.216 156.467 31.216C155.783 31.216 155.189 31.108 154.685 30.892C154.181 30.664 153.767 30.346 153.443 29.938C153.119 29.518 152.879 29.02 152.723 28.444C152.567 27.868 152.489 27.22 152.489 26.5C152.489 24.964 152.831 23.794 153.515 22.99C154.199 22.186 155.177 21.784 156.449 21.784C156.857 21.784 157.265 21.832 157.673 21.928C158.081 22.012 158.447 22.18 158.771 22.432C159.095 22.684 159.359 23.044 159.563 23.512C159.767 23.968 159.869 24.574 159.869 25.33C159.869 25.726 159.833 26.164 159.761 26.644H153.983C153.983 27.172 154.037 27.64 154.145 28.048C154.253 28.456 154.421 28.804 154.649 29.092C154.877 29.368 155.171 29.584 155.531 29.74C155.903 29.884 156.353 29.956 156.881 29.956C157.289 29.956 157.697 29.884 158.105 29.74C158.513 29.596 158.819 29.428 159.023 29.236L159.563 30.28ZM156.467 23.044C155.759 23.044 155.189 23.23 154.757 23.602C154.337 23.974 154.085 24.61 154.001 25.51H158.465C158.465 24.598 158.291 23.962 157.943 23.602C157.595 23.23 157.103 23.044 156.467 23.044Z" fill="#333333"/>
<path d="M266.675 27.7123L271.775 22.4123C272.075 22.1123 272.075 21.5123 271.775 21.2123C271.475 20.9123 270.875 20.9123 270.575 21.2123L266.075 25.9123L261.575 21.2123C261.275 20.9123 260.675 20.9123 260.375 21.2123C260.175 21.3123 260.075 21.6123 260.075 21.8123C260.075 22.0123 260.175 22.2123 260.375 22.4123L265.475 27.7123C265.775 28.1123 266.375 28.1123 266.675 27.7123Z" fill="black"/>
<rect x="1" y="1" width="290" height="47" rx="3" stroke="#E5E5E5" stroke-width="2"/>
</svg>
