<svg width="116" height="23" viewBox="0 0 116 23" fill="none" xmlns="http://www.w3.org/2000/svg">
<circle cx="10.4258" cy="11.5" r="10" fill="white"/>
<path d="M5.42578 11.5C5.42578 8.73858 7.66436 6.5 10.4258 6.5C13.1872 6.5 15.4258 8.73858 15.4258 11.5C15.4258 14.2614 13.1872 16.5 10.4258 16.5C7.66436 16.5 5.42578 14.2614 5.42578 11.5Z" fill="#3F5E72"/>
<path d="M44.7058 6.732H39.4498V18H37.9558V5.4H44.7058V6.732ZM43.2843 13.5C43.2843 11.976 43.6203 10.812 44.2923 10.008C44.9763 9.192 45.9543 8.784 47.2263 8.784C47.8983 8.784 48.4803 8.898 48.9723 9.126C49.4763 9.342 49.8903 9.66 50.2143 10.08C50.5383 10.488 50.7783 10.986 50.9343 11.574C51.0903 12.15 51.1683 12.792 51.1683 13.5C51.1683 15.024 50.8263 16.194 50.1423 17.01C49.4703 17.814 48.4983 18.216 47.2263 18.216C46.5543 18.216 45.9663 18.108 45.4623 17.892C44.9703 17.664 44.5623 17.346 44.2383 16.938C43.9143 16.518 43.6743 16.02 43.5183 15.444C43.3623 14.856 43.2843 14.208 43.2843 13.5ZM44.7783 13.5C44.7783 13.956 44.8203 14.394 44.9043 14.814C45.0003 15.234 45.1443 15.6 45.3363 15.912C45.5283 16.224 45.7803 16.476 46.0923 16.668C46.4043 16.86 46.7823 16.956 47.2263 16.956C48.8583 16.968 49.6743 15.816 49.6743 13.5C49.6743 13.032 49.6263 12.588 49.5303 12.168C49.4463 11.748 49.3083 11.382 49.1163 11.07C48.9243 10.758 48.6723 10.512 48.3603 10.332C48.0483 10.14 47.6703 10.044 47.2263 10.044C45.5943 10.032 44.7783 11.184 44.7783 13.5ZM59.5767 17.406C59.2167 17.67 58.7907 17.868 58.2987 18C57.8067 18.144 57.2907 18.216 56.7507 18.216C56.0547 18.216 55.4667 18.108 54.9867 17.892C54.5067 17.664 54.1107 17.346 53.7987 16.938C53.4987 16.518 53.2767 16.02 53.1327 15.444C53.0007 14.856 52.9347 14.208 52.9347 13.5C52.9347 11.976 53.2707 10.812 53.9427 10.008C54.6147 9.192 55.5807 8.784 56.8407 8.784C57.4167 8.784 57.9027 8.832 58.2987 8.928C58.7067 9.012 59.0727 9.138 59.3967 9.306L58.9827 10.548C58.7067 10.392 58.4007 10.272 58.0647 10.188C57.7287 10.092 57.3687 10.044 56.9847 10.044C55.2807 10.044 54.4287 11.196 54.4287 13.5C54.4287 13.956 54.4707 14.394 54.5547 14.814C54.6507 15.222 54.8007 15.588 55.0047 15.912C55.2207 16.224 55.4967 16.476 55.8327 16.668C56.1807 16.86 56.6067 16.956 57.1107 16.956C57.5427 16.956 57.9267 16.89 58.2627 16.758C58.6107 16.626 58.8927 16.476 59.1087 16.308L59.5767 17.406ZM67.0206 10.26H64.1946V18H62.7546V10.26H59.9286V9H67.0206V10.26ZM74.0665 12.672L74.1205 11.556H74.0665L73.3285 12.708L69.2785 18H68.4505V9H69.8905V14.49L69.8365 15.552H69.9085L70.6105 14.436L74.6605 9H75.5065V18H74.0665V12.672ZM83.7846 14.022H79.7166V18H78.2766V9H79.7166V12.762H83.7846V9H85.2246V18H83.7846V14.022ZM93.6133 12.672L93.6673 11.556H93.6133L92.8753 12.708L88.8253 18H87.9973V9H89.4373V14.49L89.3833 15.552H89.4553L90.1573 14.436L94.2073 9H95.0533V18H93.6133V12.672ZM105.906 20.286H104.934L104.664 18H97.8235V9H99.2635V16.74H103.17V9H104.61V16.74H105.906V20.286ZM107.541 9.666C107.997 9.39 108.525 9.186 109.125 9.054C109.737 8.922 110.373 8.856 111.033 8.856C111.657 8.856 112.155 8.94 112.527 9.108C112.911 9.276 113.199 9.498 113.391 9.774C113.595 10.038 113.727 10.332 113.787 10.656C113.859 10.98 113.895 11.304 113.895 11.628C113.895 12.348 113.877 13.05 113.841 13.734C113.805 14.418 113.787 15.066 113.787 15.678C113.787 16.122 113.805 16.542 113.841 16.938C113.877 17.334 113.943 17.7 114.039 18.036H112.977L112.599 16.776H112.509C112.401 16.944 112.263 17.112 112.095 17.28C111.939 17.436 111.747 17.58 111.519 17.712C111.291 17.832 111.027 17.934 110.727 18.018C110.427 18.102 110.085 18.144 109.701 18.144C109.317 18.144 108.957 18.084 108.621 17.964C108.297 17.844 108.015 17.676 107.775 17.46C107.535 17.232 107.343 16.962 107.199 16.65C107.067 16.338 107.001 15.984 107.001 15.588C107.001 15.06 107.109 14.622 107.325 14.274C107.541 13.914 107.841 13.632 108.225 13.428C108.621 13.212 109.089 13.062 109.629 12.978C110.181 12.882 110.787 12.834 111.447 12.834C111.615 12.834 111.777 12.834 111.933 12.834C112.101 12.834 112.269 12.846 112.437 12.87C112.473 12.51 112.491 12.186 112.491 11.898C112.491 11.238 112.359 10.776 112.095 10.512C111.831 10.248 111.351 10.116 110.655 10.116C110.451 10.116 110.229 10.134 109.989 10.17C109.761 10.194 109.521 10.236 109.269 10.296C109.029 10.344 108.795 10.41 108.567 10.494C108.351 10.566 108.159 10.65 107.991 10.746L107.541 9.666ZM110.097 16.884C110.433 16.884 110.733 16.842 110.997 16.758C111.261 16.662 111.489 16.548 111.681 16.416C111.873 16.272 112.029 16.116 112.149 15.948C112.281 15.78 112.377 15.618 112.437 15.462V13.968C112.269 13.956 112.095 13.95 111.915 13.95C111.747 13.938 111.579 13.932 111.411 13.932C111.039 13.932 110.673 13.956 110.313 14.004C109.965 14.04 109.653 14.118 109.377 14.238C109.113 14.346 108.897 14.502 108.729 14.706C108.573 14.898 108.495 15.144 108.495 15.444C108.495 15.864 108.645 16.212 108.945 16.488C109.245 16.752 109.629 16.884 110.097 16.884Z" fill="white"/>
</svg>
